# xmcd CD database file
#
# Track frame offsets:
#	150
#	17401
#	41252
#	61652
#	80853
#	100204
#	117904
#	135604
#	156453
#	172353
#	190802
#	212703
#	225005
#
# Disc length: 3312 seconds
#
# Revision: 4
# Processed by: cddbd v1.5.2PL0 Copyright (c) Steve Scherf et al.
# Submitted via: CDex 1.70beta2
#
DISCID=a60cee0d
DTITLE=Сергей Егоров - Jesus is my life
DYEAR=2009
DGENRE=Jazz
TTITLE0=01 Сувенир
TTITLE1=02 Джо Дассен
TTITLE2=03 Бессаме
TTITLE3=04 Неспочнеме
TTITLE4=05 Bellamoure
TTITLE5=06 M.Carry
TTITLE6=07 В городе
TTITLE7=08 Шербурргские зонтики
TTITLE8=09 Тень твоей улыбки
TTITLE9=10 Путники в ночи
TTITLE10=11 I LOVE YOU
TTITLE11=12 У беды глаза зеленые
TTITLE12=13 Misty
EXTD=YEAR: 2009
EXTT0=
EXTT1=
EXTT2=
EXTT3=
EXTT4=
EXTT5=
EXTT6=
EXTT7=
EXTT8=
EXTT9=
EXTT10=
EXTT11=
EXTT12=
PLAYORDER=
